<?xml version="1.0" encoding="utf-8"?>
<!-- Generator: Adobe Illustrator 26.0.3, SVG Export Plug-In . SVG Version: 6.00 Build 0)  -->
<svg version="1.0" id="Layer_1" xmlns="http://www.w3.org/2000/svg" xmlns:xlink="http://www.w3.org/1999/xlink" x="0px" y="0px"
	 viewBox="0 0 628 433.2" style="enable-background:new 0 0 628 433.2;" xml:space="preserve">
<style type="text/css">
	.st0{fill:#FB681C;}
	.st1{fill:#E5E6E7;}
	.st2{fill:#717274;}
	.st3{fill:#707173;}
	.st4{fill:#727375;}
	.st5{fill:#FEFBFA;}
	.st6{fill:#FEF9F6;}
	.st7{fill:#FEF6F3;}
	.st8{fill:#FCFCFC;}
</style>
<path class="st0" d="M172,177.2c5.8,3.6,9.8,9,13.6,14.4c0.5,0.6,0.5,1.5,0,2.1c-2.6,4.3-5.6,8.3-8.9,12.1c-1.3,1.3-3.3,1.6-4.9,0.6
	c-0.8-0.4-1.7-0.7-2.6-1.2c-0.4-0.3-0.9-0.3-1.2,0.1c-0.1,0.1-0.1,0.2-0.2,0.3l-0.5,1.1c-0.5,0.7-0.9,1.5-1.2,2.3
	c-2.1,5.6-3.2,11.5-3.2,17.5c-0.1,1.2,0,2.5,0.4,3.6c0.9,2,0.5,3.1-1.4,4.2c-0.8,0.4-1.6,0.8-2.7,1.2c2.8,0.2,5.1-0.3,6.6-2.6
	c0.3-0.5,0.5-0.3,0.8,0l0.5,0.7c0.2,0.9,0.1,1.9-0.2,2.7c-0.8,1.2-2,2.1-3.4,2.4c-2.1,0.6-4.2,0.7-6.3,0.2c-0.9-0.2-1.1,0.1-1.1,0.8
	c-0.3,3.1,0.2,5.9,2.7,8.1c1.2,1,1.5,2.8,0.7,4.1c-0.8,1.5-2.1,2.7-3.7,3.4c-3.5,1.7-7.5,2-11.3,0.9c-3.5-0.9-6.3-3.5-7.3-7
	c-0.6-1.8-0.8-3.7-0.8-5.6c0.1-2.5,0-4.9-0.5-7.4c-1-4.3-4.1-7.6-7.8-8c-5-0.6-10-1-15.1-1.4c-1.5-0.1-2.8,0.9-3.1,2.3
	c-0.3,1-0.3,2-0.1,2.9c0.4,2.2,0,3.2-2.1,4.3c-0.9,0.5-1.9,0.8-2.9,1.1c2.2,0.5,4.5,0.1,6.4-1.2c0.8-0.6,1.1-0.5,1.2,0.6
	c0.2,1.6-0.9,3.1-2.8,3.7c-2,0.5-4,0.7-6,0.3c-1-0.1-1.1,0.2-0.9,1c0.3,1.4,1,2.8,2,3.9c0.8,0.8,1.2,1.8,1.3,2.9
	c0.1,2.5-1.4,4-3.5,5c-5.8,2.9-12.9,0.8-16.3-4.8c-0.7,0.8-1.4,1.6-2.1,2.3c-2.5,2-5.5,3.2-8.6,3.5c-2.5,0-5-0.6-7.2-1.7
	c-0.8-0.4-1.5-0.9-2.1-1.6c-0.5-0.5-0.5-1.4,0-1.9c0.5-0.5,1.3-0.6,1.8-0.1c1.5,1.1,3.4,1.6,5.3,1.4c4.5,0.1,8.6-3.8,8.9-8.5
	c0.1-3.2-0.4-6.3-1.6-9.3c-1.3-3.9-2.9-7.6-4-11.6c-1.8-6.9-1-13.3,4.3-18.5c3.8-3.2,8.6-4.8,13.5-4.4c4.3,0.1,8.7,0.5,13,0.8
	c5.2,0.4,10.4,0,15.5-1.1c8.7-2.3,17-6.1,24.4-11.2c0.3-0.2,0.6-0.5,0.7-0.8c1.8-4.6,5.4-8.2,10-9.9
	C162.7,174.7,167.7,175.1,172,177.2z M162.2,213.3l-3.9-0.9c-6.1-2.1-11.3-6.1-14.9-11.4c-1.2-1.7-2.2-3.6-3-5.5
	c-0.1-0.5-0.6-0.9-1.2-0.8c-0.1,0-0.2,0.1-0.3,0.1c-0.7,0.3-0.7,0.9-0.4,1.6c0.2,0.3,0.3,0.7,0.5,1c3.2,5.9,8.2,10.7,14.3,13.5
	c1.6,0.8,3.3,1.4,5,1.7C159.5,213.1,160.8,213.3,162.2,213.3L162.2,213.3z M176.3,190.9c0.5-0.7,0.8-1.6,0.9-2.4
	c-0.3,0.7-0.7,1.4-1.1,2.1c-1.6,2.2-4.3,3.3-7,2.9c-1.6-0.1-3.2-0.6-4.6-1.5c-0.7-0.4-1.4-0.7-1.9,0.2c-0.5,0.9,0.2,1.3,0.9,1.7
	c2,1,4.2,1.4,6.4,1.1C172.6,194.9,175,193.4,176.3,190.9L176.3,190.9z M164.4,203.5c-6.3-2.3-11.5-6.9-14.5-12.9
	c-0.1-0.2-0.2-0.4-0.4-0.6c-0.3-0.4-0.8-0.4-1.2-0.1c-0.4,0.2-0.6,0.7-0.5,1.1c0.1,0.4,0.3,0.7,0.5,1c3.6,6,9.4,10.3,16.2,11.9
	c0.7,0.3,1.4,0.3,2.1,0.2L164.4,203.5z M83.3,221.6c-0.1-1-0.3-1.8-0.4-2.5c-1-6.2,3.2-12,9.3-13c0.4-0.1,0.9-0.1,1.3-0.1
	c5.5-0.5,10.5,1.2,15.3,3.6c5,2.5,9.3,6.1,13.7,9.5c4.4,3.6,9,6.9,13.8,9.9c0.3,0.2,0.6,0.6,1.3,0.3c-2.8-2-5.5-4.1-8-6.5
	c-5.5-5.5-10.2-11.5-12.3-19.2c-0.2-0.6-0.4-0.7-0.9-0.6c-2.7,0.3-5.4,0.3-8.1,0.1c-5.4-0.2-10.7-0.9-16.1-0.8
	c-6.9,0-11.9,4.5-12.3,11C79.8,216.3,81,219.4,83.3,221.6z M113.1,222.9c-0.2-0.4-0.5-0.4-0.8-0.5c-2.9-0.9-6.1-0.7-8.9,0.6
	c-5.9,2.8-9.1,9.8-7.6,16.6c0.7,3.2,2.4,6,4.9,8.1c0.1-0.1,0.1-0.2,0.1-0.2c-0.1-0.3-0.2-0.5-0.3-0.8c-1.8-3.7-2.4-7.9-1.9-12
	c0.8-5.1,3.3-8.9,8.3-10.8C108.9,223.3,111,222.9,113.1,222.9L113.1,222.9z M169.4,181.8h-0.6c-2.3,0.1-4.3,1.6-4.9,3.8
	c-0.4,2.3,0.8,4.5,2.9,5.4c1.6,0.9,3.4,1.1,5.2,0.6c1.8-0.3,3.3-1.7,3.7-3.5c0.4-1.9-0.4-4-2.1-5
	C172.4,182.2,170.9,181.7,169.4,181.8L169.4,181.8z M157.8,224l-0.6-0.1c-6.1-0.9-11.8-3.5-16.5-7.4c-4.9-4.2-8.6-9.6-10.7-15.6
	c-0.3-0.7-0.6-1.6-1.6-1.2s-0.7,1.2-0.4,2c0.1,0.2,0.1,0.3,0.2,0.4c4.2,8.9,10.2,15.9,19.5,19.7C150.9,223.2,154.3,223.9,157.8,224
	L157.8,224z M147,252.9c1,0,2,0.1,3,0c2.4-0.2,4.8-0.6,6.7-2.4c0.6-0.6,1.1-1.1,0.1-1.9c-0.8-0.7-1.4-1.6-1.8-2.7
	c-0.9-2.4-1.3-5-1.2-7.6c0-1,0.1-1.9,0.2-3.2c-1.9,3.8-2.5,8.1-1.6,12.3c0.5,2.4,0.5,2.3-1.7,3.6C149.6,251.7,148.2,252.1,147,252.9
	z M176,183.5c0-0.2,0-0.4-0.1-0.5c-0.1-0.1-0.2-0.3-0.3-0.4c-2.5-3.1-6.4-4.6-10.3-3.9c-2.5,0.3-4.7,1.5-6.4,3.4
	c-0.6,0.6-0.6,1.6,0,2.2c0,0,0.1,0.1,0.1,0.1c0.6,0.6,1.6,0.5,2.1-0.1c0,0,0.1-0.1,0.1-0.1c0.2-0.2,0.4-0.5,0.6-0.8
	c1.6-1.8,3.8-3,6.2-3.2C171,179.9,174,181.1,176,183.5L176,183.5z M162.1,206.9c-0.7,0-1.3,0.6-1.2,1.4c-0.1,0.7,0.5,1.4,1.2,1.5
	c0.7,0.1,1.4-0.5,1.5-1.2c0-0.1,0-0.2,0-0.2C163.5,207.4,162.9,206.9,162.1,206.9z M148.6,228.5c0.1,0.7,0.7,1.3,1.5,1.2
	c0.7-0.1,1.3-0.7,1.2-1.5c-0.1-0.7-0.7-1.2-1.4-1.2C149.1,227,148.6,227.5,148.6,228.5z M152.7,188.4c-0.1,0.7,0.4,1.3,1.1,1.4
	c0.1,0,0.1,0,0.2,0c0.7,0.1,1.3-0.4,1.4-1.1c0-0.1,0-0.2,0-0.3c0-0.7-0.7-1.3-1.4-1.3C153.4,187.3,152.8,187.8,152.7,188.4
	L152.7,188.4z M161.3,198.8c0.7,0,1.3-0.6,1.3-1.3c0-0.7-0.6-1.3-1.3-1.3s-1.3,0.6-1.3,1.3c0,0,0,0,0,0c0,0.7,0.5,1.3,1.1,1.3
	C161.2,198.8,161.3,198.8,161.3,198.8L161.3,198.8z M156.4,229.5c-0.1,0.7,0.4,1.3,1.1,1.4c0,0,0.1,0,0.1,0c0.7,0.1,1.3-0.4,1.4-1.1
	c0-0.1,0-0.2,0-0.3c0-0.7-0.5-1.2-1.1-1.3c-0.1,0-0.1,0-0.2,0c-0.7-0.1-1.3,0.4-1.3,1.1C156.4,229.5,156.4,229.5,156.4,229.5z
	 M137.1,221.2c0-0.7-0.5-1.3-1.3-1.3c0,0,0,0,0,0c-0.7-0.1-1.3,0.4-1.4,1c0,0.1,0,0.1,0,0.2c-0.1,0.7,0.4,1.3,1,1.4
	c0.1,0,0.2,0,0.3,0C136.6,222.6,137,222.1,137.1,221.2z M158.1,188.5c0,0.7,0.5,1.3,1.2,1.3c0,0,0.1,0,0.1,0
	c0.7,0.1,1.4-0.5,1.4-1.2c0.1-0.7-0.5-1.4-1.2-1.4c-0.1,0-0.2,0-0.2,0C158.6,187.2,158.2,187.7,158.1,188.5L158.1,188.5z M160.1,219
	c0-0.7-0.6-1.3-1.3-1.3c-0.7,0-1.3,0.6-1.3,1.3l0,0c0,0.7,0.5,1.2,1.2,1.3c0.1,0,0.1,0,0.2,0c0.7,0.1,1.3-0.4,1.3-1
	C160.2,219.2,160.2,219.1,160.1,219L160.1,219z M142.6,224.3c-1.1,0-1.6,0.5-1.7,1.2c-0.1,0.7,0.4,1.3,1.1,1.4c0.1,0,0.2,0,0.3,0
	c0.7,0.1,1.3-0.4,1.3-1.1c0-0.1,0-0.2,0-0.3C143.8,225,143.3,224.4,142.6,224.3L142.6,224.3z M152.3,216.4c0-0.7-0.5-1.3-1.2-1.3
	c0,0-0.1,0-0.1,0c-0.7,0-1.3,0.5-1.3,1.2c0,0.1,0,0.2,0,0.3c0,0.7,0.6,1.3,1.4,1.3C151.8,217.8,152.4,217.1,152.3,216.4L152.3,216.4
	L152.3,216.4z M130.5,217.5c0.7,0,1.3-0.5,1.3-1.2c0,0,0-0.1,0-0.1c0.1-0.7-0.4-1.3-1.1-1.4c-0.1,0-0.2,0-0.3,0
	c-0.7,0-1.3,0.5-1.3,1.2c0,0.1,0,0.1,0,0.2c0,0.7,0.5,1.3,1.3,1.3C130.4,217.5,130.5,217.5,130.5,217.5L130.5,217.5z M150.5,200
	c0-0.7-0.7-1.2-1.4-1.2c-0.7,0-1.3,0.6-1.3,1.4s0.6,1.3,1.4,1.3l0,0C150.1,201.4,150.6,200.9,150.5,200L150.5,200z M138.7,207.4
	c0.8,0,1.4-0.5,1.4-1.3c0.1-0.7-0.4-1.3-1.1-1.4c-0.1,0-0.2,0-0.3,0c-0.7,0-1.2,0.5-1.3,1.2c0,0.1,0,0.1,0,0.2
	c-0.1,0.7,0.5,1.3,1.2,1.3C138.6,207.4,138.7,207.4,138.7,207.4L138.7,207.4z M135,201c0.7,0,1.3-0.5,1.3-1.2c0,0,0-0.1,0-0.1
	c0.1-0.7-0.4-1.3-1.1-1.4c-0.1,0-0.2,0-0.2,0c-0.7,0-1.2,0.5-1.3,1.2c0,0.1,0,0.1,0,0.2c-0.1,0.7,0.5,1.3,1.1,1.3
	C134.9,201,135,201,135,201L135,201z M145.4,212.1c-0.1-0.8-0.5-1.3-1.3-1.3c-0.7-0.1-1.3,0.4-1.4,1.1c0,0.1,0,0.1,0,0.2
	c-0.1,0.7,0.4,1.3,1.1,1.4c0.1,0,0.2,0,0.3,0C144.8,213.5,145.4,212.9,145.4,212.1C145.4,212.2,145.4,212.1,145.4,212.1z
	 M123.2,201.7c-0.7,0-1.2,0.6-1.2,1.3c0,0,0,0,0,0.1c0,0.7,0.5,1.3,1.1,1.3c0.1,0,0.1,0,0.2,0c0.7,0.1,1.3-0.4,1.3-1.1
	c0-0.1,0-0.2,0-0.3C124.6,202.1,124.1,201.7,123.2,201.7z M144.9,195.3c0.7,0,1.2-0.5,1.3-1.1c0,0,0-0.1,0-0.1
	c0-0.7-0.5-1.4-1.3-1.4c-0.7,0-1.4,0.5-1.4,1.3C143.5,194.7,144.1,195.3,144.9,195.3C144.9,195.4,144.9,195.4,144.9,195.3z
	 M157.9,193.3c0-0.7-0.6-1.3-1.3-1.3c0,0,0,0,0,0c-0.7-0.1-1.4,0.5-1.4,1.2c-0.1,0.7,0.5,1.4,1.2,1.4c0.1,0,0.2,0,0.2,0
	c0.7,0.1,1.3-0.4,1.4-1.1C158,193.5,158,193.5,157.9,193.3L157.9,193.3z M168.8,199.3c0-0.7-0.5-1.2-1.2-1.2c0,0-0.1,0-0.1,0
	c-0.7-0.1-1.4,0.5-1.4,1.2c-0.1,0.7,0.5,1.4,1.2,1.4c0.1,0,0.2,0,0.2,0C168.4,200.8,168.8,200.3,168.8,199.3L168.8,199.3z
	 M126.2,211.1c0.7,0,1.3-0.5,1.4-1.2c0-0.7-0.5-1.3-1.2-1.4c-0.7,0-1.3,0.5-1.4,1.2c0,0,0,0.1,0,0.1c-0.1,0.6,0.4,1.2,1,1.3
	C126,211.1,126.1,211.1,126.2,211.1z M156.8,204.8c0-0.6-0.5-1.1-1.1-1.2c-0.1,0-0.1,0-0.2,0c-0.7-0.1-1.4,0.5-1.4,1.2
	c-0.1,0.7,0.5,1.4,1.2,1.4c0.1,0,0.2,0,0.2,0C156.3,206.2,156.8,205.8,156.8,204.8z M174.6,198.4c0-0.7-0.5-1.2-1.1-1.2
	c0,0-0.1,0-0.1,0c-0.6,0-1.2,0.5-1.2,1.1c0,0.1,0,0.1,0,0.2c0,0.7,0.6,1.2,1.2,1.2S174.6,199.1,174.6,198.4L174.6,198.4L174.6,198.4
	z M155.5,183.6c0-0.6-0.4-1.1-1-1.1c-0.1,0-0.1,0-0.2,0c-0.6,0-1,0.4-1.1,0.9c0,0.1,0,0.1,0,0.2c-0.1,0.5,0.3,1.1,0.8,1.1
	c0.1,0,0.2,0,0.3,0C155.1,184.7,155.4,184.3,155.5,183.6z M178.7,194.7c0.1-0.5-0.3-1-0.9-1.1c-0.1,0-0.1,0-0.2,0
	c-0.5-0.1-1.1,0.3-1.1,0.8c0,0.1,0,0.2,0,0.3c0,0.6,0.4,1,0.9,1.1c0.1,0,0.2,0,0.3,0c0.6,0,1-0.4,1-1
	C178.7,194.8,178.7,194.8,178.7,194.7L178.7,194.7z M158.2,179.6c0-0.4-0.4-0.8-0.8-0.8c0,0,0,0,0,0c-0.4,0-0.8,0.3-0.8,0.7
	c0,0,0,0.1,0,0.1c0,0.4,0.3,0.8,0.7,0.9c0,0,0.1,0,0.1,0C157.9,180.5,158.2,180.2,158.2,179.6z M176.6,201.6c-0.4,0-0.7,0.3-0.7,0.7
	c0,0,0,0,0,0.1c0,0.4,0.3,0.7,0.6,0.7c0,0,0,0,0.1,0c0.4,0,0.7-0.2,0.8-0.6c0-0.1,0-0.1,0-0.2C177.3,201.9,177,201.6,176.6,201.6z
	 M161.6,177.1c-0.4-0.1-0.8,0.2-0.8,0.6c0,0,0,0.1,0,0.1c0,0.4,0.2,0.7,0.6,0.8c0,0,0.1,0,0.1,0c0.4,0,0.7-0.2,0.7-0.6
	c0,0,0,0,0-0.1c0.1-0.4-0.2-0.7-0.5-0.8C161.6,177.1,161.6,177.1,161.6,177.1L161.6,177.1z M174.3,203.9c-0.4,0-0.7,0.4-0.7,0.8
	c0,0,0,0,0,0c0,0.4,0.2,0.7,0.6,0.7c0,0,0.1,0,0.1,0c0.4,0.1,0.7-0.2,0.8-0.6c0,0,0,0,0-0.1C175.1,204.3,174.8,204,174.3,203.9
	L174.3,203.9z M138.6,230c-0.2-0.6-0.4-0.8-0.9-0.6C137.8,229.7,138.1,229.8,138.6,230L138.6,230z"/>
<path class="st1" d="M81.1,203.1c-5.3,5.3-6.1,11.6-4.3,18.6c1,4,2.7,7.7,4,11.6c1.1,3,1.6,6.1,1.6,9.3c-0.3,4.7-4.4,8.6-8.9,8.5
	c-1.5-4.6-2.2-9.4-2-14.2c0-14.6-0.1-29.2,0-43.8c-0.1-8.5,3.6-16.7,10.1-22.1c4.2-3.6,9.4-5.9,14.8-6.5c1.3-0.2,2.5-0.2,3.8-0.2
	c16.5,0,32.9-0.1,49.3,0.1c6.1,0.1,12,2.4,16.6,6.4c2,1.6,3.7,3.5,5.2,5.5c0.2,0.4,0.6,0.7,0.5,1.2c-4.3-2.1-9.2-2.4-13.7-0.9
	c-2.6-1.9-5.7-3-8.9-2.9c-16.8-0.1-33.7,0-50.6,0c-0.4,0-0.9,0-1.3,0.1c-4.8,0.7-9.1,3.2-12.2,6.9c-2.4,2.8-3.8,6.2-4.1,9.8
	C80.9,194.5,81.1,198.8,81.1,203.1z"/>
<path class="st1" d="M75.7,254.9c3.2-0.3,6.2-1.5,8.6-3.5l0.6,0.8c3.5,4.8,9.1,7.6,15,7.5c15.5,0.1,31,0,46.4,0c1.4,0,2.9,0,4.3-0.2
	c5.3-0.7,10.2-3.6,13.3-8c1.9-2.6,3.1-5.7,3.3-9c0.3-2.1,0.2-4.2-0.1-6.2c0.4-0.9,0.4-1.8,0.2-2.7v-26.9l0.5-1.1
	c0.1-0.5,0.6-0.7,1.1-0.6c0.1,0,0.2,0.1,0.3,0.2c0.8,0.4,1.7,0.7,2.6,1.2c1.6,1,3.6,0.7,4.9-0.6c0,12.2,0.1,24.4,0,36.5
	c-0.2,4.2-1.3,8.3-3.4,11.9c-1.2,2.3-2.8,4.4-4.6,6.2c-3.4,3.5-7.7,6.1-12.4,7.4c-3.3,0.9-6.6,1.3-10,1.2c-15.3,0-30.6,0.1-45.9,0
	c-8.1,0.1-15.8-3.3-21.2-9.2C77.7,258.5,76.5,256.8,75.7,254.9z"/>
<path class="st2" d="M220.2,203.1c0.6,0.4,1.2,0.8,1.8,1.2c2.8,2.5,3.1,6.7,0.6,9.5c-0.5,0.6-1.1,1.1-1.8,1.5
	c-1.8,0.9-3.7,1.3-5.7,1.2c-3.7,0.1-7.5,0-11.2,0c-0.8,0-1-0.2-1-1.1c0-8.1,0-16.2,0-24.2c0-0.6,0-1.1,0.9-1.1c4,0.1,8,0,12.1,0.1
	c2.2,0,4.2,0.8,5.9,2.2C224.9,195.6,224.3,200.6,220.2,203.1z M212.1,211.9L212.1,211.9h3.1c0.2,0,0.5,0,0.7-0.1
	c1.8-0.3,2.9-1.3,2.9-3s-0.9-2.7-2.8-3c-2.3-0.2-4.7-0.2-7-0.2c-0.6,0-0.8,0.3-0.7,0.8c0,1.5,0,3,0,4.6c0,0.8,0.3,0.9,0.9,0.9
	C210.1,211.9,211.1,211.9,212.1,211.9z M212,201L212,201l3.2-0.1c0.2,0,0.5-0.1,0.7-0.2c1.5-0.2,2.5-1.7,2.3-3.2
	c0-0.2-0.1-0.3-0.1-0.5c-0.4-1.3-1.6-2.2-3-2.1c-2-0.1-4.1,0-6.1-0.1c-0.6,0-0.7,0.2-0.7,0.7c0,1.5,0,3,0,4.6c0,0.6,0.3,0.7,0.8,0.7
	C210,201,211,201,212,201z"/>
<path class="st2" d="M274.2,207.6c0-5.6,0-10.8,0-16c0-1,0.3-1.4,1.3-1.3c1,0.1,2,0.1,3,0c1-0.1,1.1,0.3,1.1,1.2
	c0,7.2,0,14.4,0,21.7c0,1.1,0.5,2.5-0.2,3.2s-2.2,0.1-3.3,0.3c-0.9,0.1-1.9-0.3-2.4-1.1c-3.8-5.1-7.7-10.1-11.5-15.2
	c-0.2-0.3-0.4-0.5-0.6-0.8c-0.4,0.4-0.2,0.8-0.2,1.2c0,4.9,0,9.9,0,14.8c0,0.9-0.2,1.3-1.1,1.2c-1-0.1-2.1-0.1-3.1,0
	c-0.9,0.1-1.2-0.2-1.2-1.2c0-6,0-12,0-18c0-2,0-4.1,0-6.2c0-0.8,0.2-1.1,1-1h0.1c2.8-0.6,4.6,0.7,6.2,3c3.1,4.5,6.6,8.8,9.9,13.2
	C273.6,206.8,273.8,207.1,274.2,207.6z"/>
<path class="st3" d="M439,203.4c0-8.1,5.6-13.6,13.9-13.6c8,0,13.7,5.7,13.7,13.7s-5.8,13.6-13.9,13.6S439,211.4,439,203.4z
	 M461.1,203.5c0-5-3.4-8.6-8.3-8.6s-8.3,3.6-8.3,8.6s3.4,8.5,8.2,8.5S461,208.6,461.1,203.5L461.1,203.5z"/>
<path class="st3" d="M333.6,189.9c8.1,0,13.8,5.7,13.7,13.7s-5.8,13.6-13.9,13.6c-8.8,0-14-6.6-13.8-13.9
	C319.9,195.4,325.5,189.9,333.6,189.9z M341.8,203.4c0-5-3.6-8.6-8.3-8.6s-8.2,3.7-8.2,8.7c-0.2,4.5,3.3,8.3,7.8,8.4
	c0.2,0,0.4,0,0.5,0C338.4,212,341.8,208.5,341.8,203.4L341.8,203.4z"/>
<path class="st3" d="M492.1,216.6h-6c-0.6,0-0.7-0.5-1-0.8c-2.1-2.9-4.3-5.8-6.4-8.7c-0.1-0.2-0.3-0.4-0.4-0.6
	c-0.4-0.6-1-0.4-1.5-0.3s-0.3,0.6-0.3,0.9c0,2.8,0,5.7,0,8.5c0,0.8-0.2,1.1-1,1c-1.1-0.1-2.2,0-3.3,0c-0.6,0-0.9-0.1-0.9-0.8
	c0-8.2,0-16.5,0-24.7c0-0.6,0.1-0.8,0.8-0.8c4.1,0,8.2-0.1,12.3,0.1c3.2,0.2,6.1,1.5,7.2,4.8c1.6,4.9-0.5,9.6-6.1,10.6
	c-1.3,0.2-1.3,0.2-0.5,1.3C487.2,210.3,489.6,213.3,492.1,216.6z M480.2,201.4L480.2,201.4c1.1,0.1,2.1,0.1,3.2,0.1
	c2-0.1,3.1-1.3,3.2-3.1s-1-3-3.1-3.1c-1.5-0.1-3-0.1-4.4-0.1c-2.6,0-2.6,0-2.6,2.6c0,1.2-0.5,2.8,0.3,3.5S479,201.4,480.2,201.4z"/>
<path class="st2" d="M516,202h5.2c0.4,0,0.8-0.1,0.9,0.6c0.4,5.8-2.3,11.6-8.2,13.8c-6.5,2.4-14.2-0.5-17.1-6.6
	c-3.2-6.5-0.9-14.3,5.2-18.1c5.3-2.9,11.8-2.3,16.5,1.4c0.8,0.7,0.8,1.1,0,1.7c-0.7,0.6-1.4,1.3-2,2c-0.6,0.8-1.1,0.9-1.9,0.1
	c-3.1-2.6-7.7-2.6-10.9,0c-3,2.5-3.8,8-1.5,11.6c2.3,3.5,6.7,4.8,10.5,3.1c1.7-0.8,3-2.2,3.5-4.1c0.2-0.7,0.2-1-0.7-1
	c-1.6,0.1-3.2,0-4.8,0c-0.8,0-1-0.2-1-1c0.1-1.1-0.4-2.5,0.2-3.2s2.1-0.2,3.2-0.2C514.2,201.9,515,202,516,202z"/>
<path class="st3" d="M404.7,202c1.7,0,3.5,0,5.2,0c0.5,0,0.8,0.1,0.9,0.7c0.4,7.1-3.7,12.8-9.9,14.2c-7.5,1.6-15-3-16.4-10.4
	c-1.6-8.2,3.3-15.4,11.3-16.5c4.1-0.8,8.3,0.3,11.5,3c0.7,0.6,0.9,1.1,0,1.7c-0.2,0.2-0.4,0.4-0.6,0.6c-0.7,0.7-1.3,1.6-2.1,2
	c-1,0.4-1.5-0.9-2.3-1.4c-3.9-2.3-9-1-11.3,2.9c-0.7,1.1-1,2.4-1.1,3.7c-0.4,4.9,2,8.6,6.3,9.4c4,0.8,7.6-0.5,8.9-4.3
	c0.3-0.9,0.2-1.3-0.9-1.3c-1.5,0.1-3,0-4.4,0c-0.7,0-1.1-0.1-1-0.9c0.1-0.9,0.1-1.8,0-2.7c0-0.7,0.2-0.8,0.8-0.8
	C401.2,202,402.9,202,404.7,202z"/>
<path class="st4" d="M415.4,203.4c0-4,0-8,0-12.1c0-0.8,0.2-1.1,1-1.1c5.9,0,11.7,0,17.6,0c0.9,0,1.1,0.3,1,1.1
	c-0.1,1.2,0.5,2.8-0.2,3.6s-2.3,0.2-3.5,0.3c-3.1,0-6.1,0.1-9.2,0c-1.1,0-1.4,0.4-1.3,1.4c0.1,1,0.1,2,0,3.1
	c-0.1,0.9,0.2,1.3,1.2,1.3c3.7-0.1,7.5,0,11.2,0c1,0,1.3,0.3,1.2,1.2c-0.1,0.8-0.1,1.6,0,2.3c0.2,1.2-0.4,1.4-1.5,1.4
	c-3.6-0.1-7.2,0-10.8,0c-1.1,0-1.5,0.2-1.4,1.4c0.1,1.2,0.1,2.4,0,3.6c0,0.8,0.3,1,1.1,1c4.1,0,8.1,0,12.2,0c0.9,0,1.3,0.2,1.2,1.1
	c-0.1,0.9-0.1,1.8,0,2.7c0.1,0.9-0.2,1.1-1.1,1.1c-4.2,0-8.5,0-12.7,0c-1.6,0-3.2-0.1-4.8,0c-1,0.1-1.1-0.3-1.1-1.2
	C415.4,211.5,415.4,207.4,415.4,203.4z"/>
<path class="st2" d="M548.7,190.4c3.3,0,3.3,0,4.5,3.1c2.9,7.3,5.7,14.6,8.6,21.9c0.4,1,0.3,1.4-0.9,1.3c-1-0.1-2-0.1-3.1,0
	c-1.1,0.1-1.5-0.4-1.8-1.3c-0.4-1.3-1-2.6-1.4-3.9c-0.1-0.6-0.6-1-1.2-0.9c-3.2,0-6.3,0-9.5,0c-0.5-0.1-1.1,0.3-1.1,0.8c0,0,0,0,0,0
	c-0.5,1.5-1.1,2.9-1.6,4.4c-0.1,0.6-0.7,1-1.4,0.9c-1.2-0.1-2.4-0.1-3.6,0c-0.9,0-0.9-0.2-0.7-1c2.2-5.5,4.3-11,6.4-16.5
	c1-2.6,2.1-5.2,3-7.8c0.3-0.8,0.7-1.2,1.6-1.1C547.3,190.4,548,190.4,548.7,190.4z M548.7,195.6l-3.5,9.2c-0.2,0.6-0.1,0.8,0.6,0.8
	c1.9,0,3.9,0,5.8,0c0.7,0,0.8-0.2,0.6-0.9C551,201.8,549.9,198.9,548.7,195.6L548.7,195.6z"/>
<path class="st2" d="M249.9,216.6c-2.8,0-2.8,0-3.8-2.6c-0.4-1.1-0.6-2.7-1.4-3.3s-2.4-0.1-3.7-0.1c-2.2,0-4.3,0-6.5,0
	c-0.5-0.1-1,0.3-1.1,0.8c-0.5,1.5-1.1,2.9-1.6,4.4c-0.1,0.7-0.7,1.1-1.3,1c0,0-0.1,0-0.1,0c-1.1-0.1-2.2-0.1-3.3,0
	c-0.9,0-1.1-0.2-0.8-1.1c1.7-4.4,3.4-8.8,5.1-13.1c1.4-3.7,2.9-7.3,4.2-11c0.1-0.7,0.8-1.2,1.6-1.1c1.5,0.1,3,0.1,4.4,0
	c0.6-0.1,1.1,0.3,1.3,0.8c3.2,8.2,6.3,16.3,9.5,24.5c0.3,0.8,0.2,1.1-0.7,1C251.1,216.6,250.5,216.6,249.9,216.6z M239.4,196h-0.3
	c-1.1,3-2.3,6-3.4,9c-0.2,0.4,0,0.6,0.4,0.6h6.9L239.4,196z"/>
<path class="st3" d="M308.5,190.4l-7.8,9c-0.8,0.9-1.6,1.9-2.4,2.8c-0.7,0.7-0.7,1.1,0,1.9c3.5,3.9,6.9,7.8,10.3,11.7
	c0.2,0.2,0.3,0.4,0.7,0.9c-2.3,0-4.4,0-6.5,0c-0.5,0-0.7-0.5-1-0.8c-2.7-3.1-5.3-6.1-7.9-9.2c-0.8-1-1.8-0.7-2.7-0.6
	c-0.6,0-0.4,0.6-0.4,1c0,2.9,0,5.7,0,8.6c0,0.8-0.2,1.2-1.1,1.1c-1.1-0.1-2.2-0.1-3.3,0c-0.6,0-0.9-0.2-0.9-0.8c0-8.2,0-16.5,0-24.7
	c0-0.6,0.2-0.8,0.8-0.8c1.2,0,2.4,0,3.6,0c0.7,0,0.9,0.2,0.9,0.9c0,2.7,0,5.4,0,8.1c0,0.5-0.4,1.4,0.4,1.5c0.7,0.1,1.8,0.4,2.6-0.6
	c2.3-2.9,4.7-5.8,7.1-8.7c0.6-0.9,1.6-1.4,2.7-1.3C305,190.4,306.6,190.4,308.5,190.4z"/>
<path class="st2" d="M352,203.4c0-4,0-8,0-12.1c0-0.8,0.2-1,1-1c5.8,0,11.6,0,17.4,0c0.8,0,1.1,0.3,1,1.1c-0.1,1.2,0.5,2.8-0.3,3.7
	s-2.3,0.2-3.5,0.2c-3.1,0-6.1,0-9.2,0c-0.9,0-1.2,0.2-1.2,1.2c0.1,1.1,0.1,2.3,0,3.4c-0.1,1,0.2,1.3,1.2,1.3c3.6,0,7.1,0,10.7,0
	c1,0,1.4,0.2,1.3,1.3c-0.1,0.8-0.1,1.6,0,2.5c0.1,1-0.3,1.2-1.2,1.2c-3.5,0-7,0-10.6,0c-1.1,0-1.4,0.2-1.4,1.4c0.1,2.8,0,5.5,0,8.2
	c0,0.9-0.2,1.2-1.1,1.1c-1-0.1-2-0.1-3.1,0c-0.9,0.1-1.1-0.2-1.1-1.1C352.1,211.5,352,207.4,352,203.4z"/>
<path class="st2" d="M253.9,253.5c-6,0-10.2-4.2-10.2-10.1c0.2-5.6,5-10,10.6-9.8c5.4,0.2,9.7,4.6,9.8,10
	C264.1,249.4,259.8,253.5,253.9,253.5z M260,243.4c-0.1-3.4-3-6-6.3-5.8s-6,3-5.8,6.3c0.1,3.3,2.8,5.8,6,5.8c3.3,0.1,6-2.5,6.1-5.8
	C260,243.8,260,243.6,260,243.4z"/>
<path class="st2" d="M235.5,245.4l5.9,7.7c-1.7,0-3.1,0-4.5,0c-0.4,0-0.6-0.5-0.8-0.7c-1.5-2.1-3.1-4.2-4.6-6.3
	c-0.3-0.4-0.6-0.8-1.2-0.7s-0.4,0.7-0.4,1.1c0,1.9,0,3.8,0,5.7c0,0.7-0.2,0.9-0.9,0.9c-3.1,0.1-3.1,0.1-3.1-2.9c0-5.1,0-10.2,0-15.4
	c0-0.9,0.2-1.2,1.1-1.2c2.5,0.1,4.9,0,7.4,0c0.7,0,1.4,0.1,2.1,0.2c3.1,0.6,4.7,2.6,4.8,5.6c0.1,2.8-1.9,5.2-4.6,5.6
	C236.3,245.3,236,245.3,235.5,245.4z M232.8,237.3L232.8,237.3c-0.6,0-1.3,0-2,0s-1,0.2-1,1c0,1,0,2,0,3.1c0,0.5,0.1,0.7,0.7,0.7
	c1.5,0.1,3.1,0,4.6-0.2c1.1-0.1,2-1.1,2-2.2c0-1.2-0.9-2.2-2.1-2.2c0,0,0,0,0,0C234.4,237.3,233.6,237.3,232.8,237.3z"/>
<path class="st2" d="M218,242.3c1.2,0,2.5,0,3.7,0c0.6,0,0.8,0.2,0.8,0.8c0.5,5.1-3.3,9.9-8.2,10.4c-6,0.5-10.8-3.2-11.3-8.7
	s2.4-9.9,7.7-11c3.2-0.8,6.7-0.1,9.2,2.1c0.5,0.4,0.6,0.8,0.1,1.2c-0.1,0.1-0.1,0.1-0.2,0.2c-0.6,0.6-1.2,1.4-1.9,1.7
	s-1.3-0.8-2-1.1c-2.6-1.3-5.7-0.6-7.6,1.6c-1.9,2.5-1.8,6,0.1,8.5c1.9,2.1,5.1,2.7,7.6,1.3c1-0.6,1.8-1.5,2.1-2.6
	c0.2-0.6,0-0.9-0.7-0.9c-1.1,0-2.1,0-3.2,0c-0.6,0-0.8-0.2-0.8-0.8c-0.1-2.5-0.2-2.5,2.4-2.5L218,242.3z"/>
<path class="st3" d="M267.3,240.5c0-2,0-3.9,0-5.9c0-0.6,0.2-0.8,0.8-0.9c3.1-0.1,3.1-0.1,3.1,3c0,2.8,0,5.7,0,8.5
	c0,3.7,3.4,5.7,6.7,4.1c1.7-0.8,2.1-2.3,2.1-4c0-3.4,0-6.8,0-10.2c0-1,0.2-1.3,1.2-1.3c2.7,0.1,2.7,0,2.7,2.7v9.1
	c0,4.8-2.9,7.7-7.7,7.9c-1,0.1-2,0-3-0.2c-3.5-0.6-6.1-3.7-6-7.2C267.3,244.2,267.3,242.3,267.3,240.5z"/>
<path class="st4" d="M288.1,243.3c0-2.8,0-5.7,0-8.5c0-0.8,0.2-1.1,1.1-1.1c2.6,0.1,5.2,0,7.8,0.1c4.6,0.2,7.2,3.7,6,8
	c-0.7,2.5-2.8,4.1-5.8,4.3c-1.3,0.1-2.7,0.1-4.1,0c-0.8,0-1.1,0.2-1,1c0.1,1.6,0,3.3,0,4.9c0,0.9-0.1,1.2-1.1,1.2
	c-2.8,0-2.8,0-2.8-2.8L288.1,243.3z M294.7,242.5c0.8,0,1.6,0,2.3-0.1c1.4-0.2,2.3-1.5,2-2.9c-0.2-1-1-1.9-2-2
	c-0.9-0.1-1.7-0.1-2.6-0.1c-2.5,0-2.5,0-2.5,2.4C292,242.4,292,242.4,294.7,242.5L294.7,242.5z"/>
<path class="st4" d="M313.2,243.3c0-2.8,0-5.7,0-8.5c0-0.8,0.1-1.2,1-1.1c2.6,0.1,5.2,0,7.8,0c4.7,0.2,7.3,4,5.9,8.3
	c-0.8,2.3-2.8,3.8-5.7,3.9c-1.4,0.1-2.8,0.1-4.2,0c-0.7,0-0.9,0.2-0.9,0.9c0,1.8,0,3.5,0,5.3c0,0.6-0.1,0.9-0.9,0.9
	c-3.1,0.1-3.1,0.1-3.1-3L313.2,243.3z M317.1,239.9c0,0.6,0,1.2,0,1.8c0,0.4,0.1,0.7,0.6,0.7c1.5,0.1,3,0,4.5-0.1
	c1.3-0.3,2.2-1.6,1.9-2.9c-0.2-1-1-1.8-2-1.9c-0.8-0.1-1.6-0.1-2.4-0.1C317.1,237.3,317.1,237.3,317.1,239.9z"/>
<path class="st2" d="M357,253.5c-5.4,0-9.3-3.1-10.3-7.6c-1.2-4.6,1-9.4,5.3-11.5c4.2-2,9.7-0.8,12.4,2.5c0.5,0.6,0.6,1.1-0.2,1.5
	c-0.2,0.1-0.4,0.2-0.6,0.4c-1.7,1-1.7,1-3.2-0.2c-2-1.5-4.6-1.7-6.8-0.5c-2.2,1.4-3.4,4-2.9,6.6c0.4,3.3,3.4,5.6,6.7,5.2
	c1.5-0.2,2.8-0.9,3.7-2c0.5-0.5,0.8-0.6,1.3-0.1c0.3,0.2,0.5,0.4,0.8,0.6c2,1.4,2,1.4,0.1,3C361.5,252.7,359.3,253.5,357,253.5z"/>
<path class="st4" d="M526.7,203.4c0-4,0-8,0-12c0-0.8,0.2-1.2,1.1-1.1c1.1,0.1,2.3,0.1,3.4,0c0.6,0,0.9,0.2,0.9,0.8
	c0,8.2,0,16.5,0,24.7c0,0.7-0.3,0.8-0.9,0.8c-1.1,0-2.3-0.1-3.5,0c-0.8,0-1-0.2-1-1C526.7,211.6,526.7,207.5,526.7,203.4z"/>
<path class="st4" d="M331.5,243.4c0-2.9,0-5.8,0-8.7c0-0.7,0.2-1,1-1c3,0,3-0.1,3,2.9c0,3.8,0,7.6,0,11.5c0,1.2,0.4,1.5,1.5,1.4
	c2.6-0.1,5.2,0,7.8,0c0.8,0,1.1,0.1,1.1,1c0,2.7,0,2.7-2.7,2.7c-3.4,0-6.9,0-10.3,0c-1,0-1.2-0.3-1.2-1.2
	C331.5,249.1,331.5,246.3,331.5,243.4z"/>
<path class="st5" d="M83.3,221.6c-2.3-2.2-3.5-5.4-3.3-8.6c0.4-6.5,5.4-10.9,12.3-11c5.4,0,10.7,0.6,16.1,0.8
	c2.7,0.2,5.4,0.1,8.1-0.1c0.5-0.1,0.8,0,0.9,0.6c2.1,7.7,6.7,13.8,12.3,19.2c2.5,2.4,5.2,4.6,8,6.5c-0.6,0.3-1-0.1-1.3-0.3
	c-4.8-3-9.4-6.3-13.8-9.9c-4.4-3.4-8.7-7-13.7-9.5c-4.8-2.4-9.9-4-15.4-3.6c-6.2,0.3-11.1,5.6-10.8,11.9c0,0.4,0.1,0.9,0.1,1.3
	C83,219.8,83.2,220.6,83.3,221.6z"/>
<path class="st6" d="M113.1,222.9c-2.1,0-4.2,0.4-6.2,1.1c-5,1.9-7.5,5.7-8.3,10.8c-0.6,4.1,0.1,8.3,1.9,12c0.1,0.3,0.2,0.5,0.3,0.8
	c0,0,0,0.1-0.1,0.2c-2.5-2.1-4.2-5-4.9-8.2c-1.6-6.8,1.6-13.8,7.6-16.6c2.8-1.3,5.9-1.5,8.9-0.6
	C112.5,222.5,112.9,222.5,113.1,222.9z"/>
<path class="st6" d="M169.4,181.8c1.5,0,2.9,0.4,4.1,1.3c1.7,1,2.6,3.1,2.1,5c-0.4,1.8-1.8,3.2-3.7,3.5c-1.7,0.5-3.5,0.3-5.1-0.6
	c-2.1-0.9-3.3-3.1-3-5.4c0.6-2.2,2.6-3.7,4.9-3.8L169.4,181.8z M173.8,189.2c-1.4,0.1-2.6,0-3.3-1.2c-0.4-0.6-0.3-1.4,0.2-1.9
	c1-1.1,2.2-0.8,3.4-0.3c-1.2-2.1-4-2.9-6.1-1.7c-0.3,0.2-0.5,0.3-0.7,0.5c-0.9,0.8-1.2,2.1-0.7,3.3
	C167.6,190.4,171.5,191.2,173.8,189.2z"/>
<path class="st7" d="M157.8,224c-3.5,0-6.9-0.8-10.1-2.2c-9.2-3.8-15.3-10.8-19.5-19.7c-0.1-0.1-0.1-0.3-0.1-0.4
	c-0.3-0.8-0.6-1.6,0.4-2s1.3,0.5,1.6,1.2c2.2,6.1,5.9,11.4,10.8,15.6c4.7,4,10.4,6.5,16.5,7.4L157.8,224z"/>
<path class="st6" d="M147,252.9c1.2-0.8,2.6-1.2,3.8-1.9c2.1-1.2,2.1-1.2,1.7-3.6c-0.9-4.1-0.4-8.5,1.5-12.3
	c-0.1,1.3-0.2,2.3-0.2,3.2c-0.1,2.6,0.3,5.2,1.2,7.6c0.3,1,1,1.9,1.8,2.6c1,0.8,0.6,1.3-0.1,1.9c-1.9,1.8-4.3,2.1-6.7,2.4
	C149,253,148,252.9,147,252.9z"/>
<path class="st6" d="M176,183.5c-2-2.3-5-3.5-8-3.2c-2.4,0.2-4.6,1.3-6.2,3.2c-0.2,0.2-0.4,0.5-0.6,0.8c-0.5,0.7-1.5,0.8-2.1,0.3
	c0,0-0.1-0.1-0.1-0.1c-0.7-0.6-0.7-1.5-0.2-2.2c0,0,0.1-0.1,0.1-0.1c1.6-1.9,3.9-3.1,6.4-3.4c3.9-0.7,7.8,0.8,10.3,3.9
	c0.1,0.1,0.2,0.3,0.3,0.4C176,183.1,176,183.3,176,183.5z"/>
<path class="st7" d="M158.2,212.6c-1.7-0.3-3.4-0.8-5-1.7c-6.1-2.8-11.1-7.6-14.3-13.5c-0.2-0.3-0.3-0.6-0.5-1
	c-0.3-0.6-0.3-1.2,0.4-1.6c0.5-0.3,1.1-0.1,1.4,0.4c0.1,0.1,0.1,0.2,0.1,0.3c0.8,1.9,1.8,3.7,3,5.5c3.6,5.3,8.8,9.4,14.9,11.4V212.6
	z"/>
<path class="st7" d="M164.4,203.9c-6.8-1.6-12.6-5.9-16.2-11.9c-0.2-0.3-0.4-0.6-0.5-1c-0.1-0.4,0.1-0.9,0.5-1.1
	c0.4-0.3,0.9-0.2,1.2,0.1c0.2,0.2,0.3,0.4,0.4,0.6c3,6,8.2,10.6,14.5,12.9C164.4,203.6,164.4,203.8,164.4,203.9z"/>
<path class="st6" d="M176.2,190.9c-1.2,2.4-3.6,4-6.4,4.2c-2.2,0.3-4.4-0.1-6.4-1.1c-0.7-0.4-1.3-0.8-0.9-1.7s1.1-0.6,1.9-0.2
	c1.4,0.9,3,1.4,4.6,1.5c2.7,0.4,5.4-0.7,7-2.9C176.1,190.7,176.1,190.8,176.2,190.9z"/>
<path class="st7" d="M162.1,206.9c0.9,0.1,1.4,0.5,1.4,1.3c0.1,0.7-0.5,1.4-1.2,1.5c-0.7,0.1-1.4-0.5-1.5-1.2c0-0.1,0-0.2,0-0.2
	C160.8,207.5,161.4,206.9,162.1,206.9z"/>
<path class="st7" d="M148.6,228.5c0-1,0.5-1.4,1.3-1.5c0.7,0,1.4,0.5,1.4,1.3c0,0.7-0.5,1.4-1.3,1.4
	C149.3,229.7,148.7,229.2,148.6,228.5z"/>
<path class="st7" d="M152.7,188.4c0.1-0.7,0.7-1.3,1.5-1.2c0.7,0.1,1.2,0.6,1.2,1.3c0.1,0.7-0.5,1.3-1.1,1.3c-0.1,0-0.2,0-0.3,0
	c-0.7,0-1.3-0.6-1.3-1.3C152.7,188.5,152.7,188.5,152.7,188.4z"/>
<path class="st7" d="M161.3,198.8c-0.7,0-1.3-0.6-1.3-1.3c0-0.7,0.6-1.3,1.3-1.3c0.7,0,1.3,0.6,1.3,1.3c0,0,0,0,0,0
	c0,0.7-0.5,1.3-1.2,1.3C161.4,198.8,161.4,198.8,161.3,198.8z"/>
<path class="st7" d="M156.4,229.5c0-0.7,0.5-1.2,1.2-1.2c0,0,0.1,0,0.1,0c0.7-0.1,1.3,0.4,1.3,1.1c0,0.1,0,0.1,0,0.2
	c0.1,0.7-0.4,1.3-1.1,1.4c-0.1,0-0.2,0-0.3,0c-0.7,0-1.3-0.6-1.3-1.3C156.4,229.6,156.4,229.6,156.4,229.5z"/>
<path class="st7" d="M137.1,221.2c-0.1,0.8-0.6,1.4-1.4,1.3c-0.7,0-1.3-0.5-1.3-1.2c0-0.1,0-0.2,0-0.3c0-0.7,0.5-1.2,1.2-1.2
	c0.1,0,0.1,0,0.2,0C136.6,219.9,137.2,220.5,137.1,221.2C137.2,221.2,137.2,221.2,137.1,221.2z"/>
<path class="st7" d="M158.2,188.5c0.1-0.8,0.5-1.3,1.3-1.3c0.7-0.1,1.4,0.5,1.4,1.2c0.1,0.7-0.5,1.4-1.2,1.4c-0.1,0-0.2,0-0.2,0
	C158.8,189.9,158.2,189.3,158.2,188.5C158.2,188.6,158.2,188.6,158.2,188.5z"/>
<path class="st7" d="M160.2,219c0,0.7-0.5,1.2-1.1,1.2c-0.1,0-0.1,0-0.2,0c-0.7,0.1-1.3-0.4-1.3-1.1c0-0.1,0-0.1,0-0.2
	c0-0.7,0.6-1.3,1.3-1.3C159.6,217.6,160.2,218.2,160.2,219L160.2,219z"/>
<path class="st7" d="M142.7,224.3c0.6,0.1,1.1,0.6,1,1.3c0,0,0,0,0,0c0.1,0.7-0.4,1.3-1.1,1.3c-0.1,0-0.1,0-0.2,0
	c-0.7,0.1-1.3-0.4-1.4-1.1c0-0.1,0-0.2,0-0.3C141.1,224.8,141.6,224.3,142.7,224.3z"/>
<path class="st7" d="M152.3,216.4c0,0.7-0.5,1.4-1.3,1.4s-1.4-0.5-1.4-1.3l0,0c-0.1-0.7,0.4-1.3,1.1-1.4c0.1,0,0.2,0,0.3,0
	c0.7,0,1.3,0.5,1.3,1.2C152.3,216.3,152.3,216.4,152.3,216.4z"/>
<path class="st6" d="M130.6,217.5c-0.7,0.1-1.3-0.5-1.4-1.2c0,0,0-0.1,0-0.1c-0.1-0.7,0.4-1.3,1.1-1.4c0.1,0,0.1,0,0.2,0
	c0.7-0.1,1.3,0.4,1.4,1.1c0,0.1,0,0.2,0,0.3C131.9,216.9,131.3,217.5,130.6,217.5C130.6,217.5,130.6,217.5,130.6,217.5z"/>
<path class="st7" d="M150.6,200c0,0.9-0.5,1.4-1.3,1.5c-0.7,0-1.4-0.6-1.4-1.3c0-0.7,0.6-1.4,1.3-1.4l0,0
	C149.9,198.7,150.5,199.3,150.6,200z"/>
<path class="st7" d="M138.7,207.4c-0.7,0-1.3-0.5-1.3-1.2c0,0,0-0.1,0-0.1c-0.1-0.7,0.4-1.3,1.1-1.3c0.1,0,0.1,0,0.2,0
	c0.7-0.1,1.3,0.4,1.4,1.1c0,0.1,0,0.2,0,0.3C140.1,207,139.6,207.4,138.7,207.4z"/>
<path class="st7" d="M135.1,201c-0.7,0-1.3-0.5-1.3-1.2c0-0.1,0-0.1,0-0.2c-0.1-0.7,0.4-1.3,1.1-1.3c0.1,0,0.1,0,0.2,0
	c0.7-0.1,1.3,0.4,1.4,1.1c0,0.1,0,0.2,0,0.3c0,0.7-0.5,1.3-1.2,1.3C135.1,201,135.1,201,135.1,201z"/>
<path class="st7" d="M145.4,212.1c0,0.7-0.6,1.3-1.3,1.3c0,0,0,0,0,0c-0.7,0.1-1.3-0.4-1.4-1.1c0-0.1,0-0.2,0-0.3
	c0-0.7,0.5-1.2,1.2-1.3c0.1,0,0.1,0,0.2,0C144.9,210.9,145.3,211.4,145.4,212.1z"/>
<path class="st6" d="M123.2,201.7c0.9,0,1.4,0.4,1.5,1.2c0.1,0.7-0.4,1.3-1,1.4c-0.1,0-0.2,0-0.3,0c-0.7,0.1-1.3-0.4-1.3-1.1
	c0-0.1,0-0.1,0-0.2C122,202.4,122.5,201.8,123.2,201.7C123.2,201.7,123.2,201.7,123.2,201.7z"/>
<path class="st6" d="M144.9,195.4c-0.7,0-1.3-0.6-1.4-1.3s0.6-1.3,1.3-1.4c0.7,0,1.3,0.6,1.4,1.3c0,0,0,0.1,0,0.1
	c0,0.7-0.5,1.2-1.2,1.3C145,195.4,145,195.4,144.9,195.4z"/>
<path class="st6" d="M158,193.4c0.1,0.7-0.5,1.3-1.2,1.4c0,0-0.1,0-0.1,0c-0.7,0.1-1.4-0.5-1.4-1.2c-0.1-0.7,0.5-1.4,1.2-1.4
	c0.1,0,0.2,0,0.2,0C157.4,192.1,158,192.7,158,193.4C158,193.4,158,193.4,158,193.4z"/>
<path class="st6" d="M168.8,199.4c0,0.9-0.5,1.4-1.3,1.4c-0.7,0-1.4-0.5-1.4-1.3s0.5-1.4,1.3-1.4
	C168.2,198.1,168.8,198.7,168.8,199.4z"/>
<path class="st6" d="M126.2,211.1c-0.6,0.1-1.2-0.4-1.3-1c0-0.1,0-0.2,0-0.2c0-0.7,0.5-1.3,1.3-1.4c0.7,0,1.3,0.5,1.4,1.3
	c0,0.7-0.5,1.3-1.3,1.4C126.2,211.1,126.2,211.1,126.2,211.1z"/>
<path class="st6" d="M156.8,204.8c0,1-0.5,1.5-1.2,1.5c-0.7,0.1-1.4-0.5-1.4-1.2c-0.1-0.7,0.5-1.4,1.2-1.4c0.1,0,0.2,0,0.2,0
	c0.6-0.1,1.2,0.4,1.2,1C156.8,204.7,156.8,204.7,156.8,204.8z"/>
<path class="st7" d="M174.6,198.4c0,0.7-0.6,1.2-1.2,1.2c-0.7,0-1.2-0.6-1.2-1.2l0,0c-0.1-0.6,0.4-1.2,1-1.3c0.1,0,0.1,0,0.2,0
	c0.6-0.1,1.2,0.4,1.3,1.1C174.6,198.3,174.6,198.3,174.6,198.4z"/>
<path class="st7" d="M155.5,183.6c-0.1,0.7-0.4,1.1-1.1,1.1c-0.5,0.1-1-0.3-1.1-0.9c0-0.1,0-0.2,0-0.2c0-0.6,0.4-1,0.9-1.1
	c0.1,0,0.1,0,0.2,0c0.6,0,1.1,0.4,1.1,1C155.5,183.5,155.5,183.6,155.5,183.6z"/>
<path class="st7" d="M178.7,194.8c0,0.6-0.4,1-0.9,1.1c0,0-0.1,0-0.1,0c-0.5,0.1-1.1-0.2-1.2-0.8c0-0.1,0-0.2,0-0.3
	c-0.1-0.5,0.3-1.1,0.8-1.1c0.1,0,0.2,0,0.3,0c0.6,0,1,0.4,1,1C178.7,194.7,178.7,194.7,178.7,194.8z"/>
<path class="st7" d="M158.2,179.6c0,0.6-0.4,0.9-0.9,0.9c-0.4,0-0.8-0.3-0.8-0.8c0,0,0-0.1,0-0.1c0-0.4,0.3-0.8,0.7-0.8
	c0,0,0.1,0,0.1,0C157.8,178.8,158.2,179.1,158.2,179.6C158.2,179.6,158.2,179.6,158.2,179.6z"/>
<path class="st7" d="M176.6,201.6c0.5,0,0.7,0.3,0.7,0.7c0.1,0.4-0.2,0.7-0.6,0.8c-0.1,0-0.1,0-0.2,0c-0.4,0-0.7-0.3-0.7-0.6
	c0,0,0,0,0-0.1C175.8,202,176.1,201.6,176.6,201.6C176.5,201.6,176.5,201.6,176.6,201.6z"/>
<path class="st7" d="M161.6,177.1c0.4,0,0.7,0.3,0.7,0.7c0,0,0,0.1,0,0.1c0,0.4-0.3,0.7-0.7,0.7c0,0,0,0-0.1,0
	c-0.4,0-0.7-0.2-0.8-0.6c0,0,0-0.1,0-0.1c0-0.4,0.3-0.7,0.7-0.7C161.5,177,161.5,177,161.6,177.1z"/>
<path class="st7" d="M174.3,203.9c0.5,0.1,0.8,0.4,0.7,0.9c0,0.4-0.3,0.6-0.7,0.6c0,0,0,0-0.1,0c-0.4,0-0.7-0.3-0.7-0.6
	c0,0,0-0.1,0-0.1C173.6,204.3,173.9,204,174.3,203.9C174.3,203.9,174.3,203.9,174.3,203.9z"/>
<path class="st1" d="M158.2,212.6v-0.2l3.9,0.9l0,0C160.8,213.3,159.5,213.1,158.2,212.6z"/>
<path class="st1" d="M176.2,190.9c-0.1-0.1-0.1-0.2-0.2-0.3c0.4-0.7,0.8-1.4,1.1-2.2C177,189.4,176.7,190.2,176.2,190.9z"/>
<path class="st1" d="M164.4,203.9c0-0.1,0-0.2,0-0.4l2.1,0.6C165.8,204.2,165,204.1,164.4,203.9z"/>
<path class="st5" d="M138.6,230c-0.4-0.2-0.7-0.3-0.9-0.6C138.1,229.3,138.4,229.5,138.6,230z"/>
<path class="st8" d="M317.1,239.9c0-2.5,0-2.6,2.6-2.5c0.8,0,1.6,0,2.4,0.1c1.4,0.2,2.3,1.5,2,2.9c-0.2,1-0.9,1.8-1.9,2
	c-1.5,0.2-3,0.2-4.5,0.1c-0.5,0-0.6-0.3-0.6-0.7C317.1,241.1,317.1,240.5,317.1,239.9z"/>
<path class="st0" d="M173.8,189.2c-2.3,2.1-6.2,1.2-7.2-1.4c-0.5-1.1-0.2-2.4,0.7-3.3c1.9-1.6,4.7-1.5,6.3,0.4
	c0.2,0.2,0.4,0.5,0.5,0.7c-1.2-0.5-2.4-0.7-3.4,0.3c-0.5,0.5-0.6,1.3-0.2,1.9C171.2,189.2,172.4,189.3,173.8,189.2z"/>
</svg>
