<?xml version="1.0" encoding="UTF-8"?>
<svg version="1.1" xmlns="http://www.w3.org/2000/svg" width="326" height="60">
<path d="M0 0 C4.06332027 1.0342997 5.58809349 0.31852744 9.4375 -1.125 C14.9127952 -1.62275411 18.62480791 -0.79871783 23.4375 1.875 C26.34555956 4.68562458 29.3140965 7.75820961 29.55775452 11.93777466 C29.55553391 12.78604828 29.55331329 13.6343219 29.55102539 14.50830078 C29.55094986 15.46914581 29.55087433 16.42999084 29.55079651 17.41995239 C29.54563522 18.45957123 29.54047394 19.49919006 29.53515625 20.5703125 C29.5337413 21.63289276 29.53232635 22.69547302 29.53086853 23.79025269 C29.52525834 27.19353009 29.51270409 30.59674238 29.5 34 C29.49498631 36.30338447 29.49042318 38.60676997 29.48632812 40.91015625 C29.47528559 46.56512936 29.45801409 52.22005363 29.4375 57.875 C25.1475 57.875 20.8575 57.875 16.4375 57.875 C16.1075 43.025 15.7775 28.175 15.4375 12.875 C14.1175 12.545 12.7975 12.215 11.4375 11.875 C9.46433169 13.84816831 10.27689233 17.71576961 10.26171875 20.41796875 C10.23850628 21.98243512 10.21438838 23.54688827 10.18945312 25.11132812 C10.15443134 27.58220062 10.12505406 30.05259196 10.11157227 32.52368164 C10.09602534 34.9057094 10.0557593 37.286319 10.01171875 39.66796875 C10.01362717 40.39944626 10.01553558 41.13092377 10.01750183 41.88456726 C9.86670518 48.25849977 7.49571594 51.7640093 3.15234375 56.21875 C-0.39410826 58.38234087 -2.86706457 58.40829656 -7 58.375 C-8.27746094 58.3853125 -9.55492187 58.395625 -10.87109375 58.40625 C-15.10481828 57.79695208 -17.25514762 56.53653801 -20.5625 53.875 C-25.56689517 46.97238597 -24.78099411 39.46475824 -24.80273438 31.28588867 C-24.81242234 29.08018016 -24.84346133 26.87541132 -24.875 24.66992188 C-24.88153292 23.25260965 -24.88678226 21.83529082 -24.890625 20.41796875 C-24.8999707 19.13946045 -24.90931641 17.86095215 -24.91894531 16.54370117 C-24.3922586 11.12279626 -22.74973262 7.31893156 -19.25 3.0625 C-13.41818788 -1.68432382 -7.08465668 -2.23726001 0 0 Z M-8.5625 10.875 C-11.46691659 13.77941659 -10.82117736 15.94257845 -10.828125 20 C-10.83003845 20.7027002 -10.8319519 21.40540039 -10.83392334 22.12939453 C-10.83528475 23.61556354 -10.83159132 25.10174445 -10.82324219 26.58789062 C-10.81254154 28.86615646 -10.82313839 31.14363377 -10.8359375 33.421875 C-10.8346159 34.86458508 -10.83205349 36.30729466 -10.828125 37.75 C-10.82586914 39.06742188 -10.82361328 40.38484375 -10.82128906 41.7421875 C-10.89415439 44.9743413 -10.89415439 44.9743413 -8.5625 46.875 C-6.47916667 46.70833333 -6.47916667 46.70833333 -4.5625 45.875 C-2.41555009 41.58110017 -3.37664535 35.84171421 -3.37719727 31.0715332 C-3.37501202 28.94917719 -3.3568548 26.82734205 -3.33789062 24.70507812 C-3.33495633 23.35677261 -3.33297177 22.00846463 -3.33203125 20.66015625 C-3.32792236 19.43176025 -3.32381348 18.20336426 -3.31958008 16.93774414 C-3.32597283 13.70201609 -3.32597283 13.70201609 -5.5625 10.875 C-6.5525 10.875 -7.5425 10.875 -8.5625 10.875 Z " fill="#000000" transform="translate(250.5625,2.125)"/>
<path d="M0 0 C4.08315295 3.3572591 5.72151152 5.91242872 7 11 C7.26062524 14.4795198 7.23307476 17.94211216 7.1953125 21.4296875 C7.1924826 22.42001984 7.18965271 23.41035217 7.18673706 24.43069458 C7.1755847 27.57892176 7.15048907 30.72685949 7.125 33.875 C7.11496382 36.01562088 7.10583908 38.15624624 7.09765625 40.296875 C7.07566153 45.53136072 7.04116563 50.76563136 7 56 C2.38 56 -2.24 56 -7 56 C-7.02505615 54.64205322 -7.0501123 53.28410645 -7.07592773 51.88500977 C-7.16981297 46.86618956 -7.27007904 41.84751391 -7.37231445 36.82885742 C-7.41573507 34.65311047 -7.45740471 32.47732786 -7.49731445 30.30151367 C-7.55484502 27.18136832 -7.61858823 24.06140367 -7.68359375 20.94140625 C-7.70030624 19.96224747 -7.71701874 18.98308868 -7.73423767 17.97425842 C-7.75418289 17.07340012 -7.77412811 16.17254181 -7.79467773 15.24438477 C-7.81799416 14.04858543 -7.81799416 14.04858543 -7.84178162 12.82862854 C-7.80400665 10.98148618 -7.80400665 10.98148618 -9 10 C-10.66617115 9.95936168 -12.33388095 9.957279 -14 10 C-15.15291684 12.30583369 -15.15397338 13.69866887 -15.20532227 16.26611328 C-15.22526749 17.14687531 -15.24521271 18.02763733 -15.26576233 18.93508911 C-15.29083107 20.36327469 -15.29083107 20.36327469 -15.31640625 21.8203125 C-15.33718735 22.79410858 -15.35796844 23.76790466 -15.37937927 24.77120972 C-15.44488598 27.88906647 -15.50376497 31.00700903 -15.5625 34.125 C-15.60568415 36.23568604 -15.6492984 38.34636333 -15.69335938 40.45703125 C-15.80056853 45.63793236 -15.90183283 50.81891999 -16 56 C-20.62 56 -25.24 56 -30 56 C-30.04966889 50.16505149 -30.08584653 44.33022778 -30.10986328 38.49511719 C-30.11988215 36.51267349 -30.133501 34.53024441 -30.15087891 32.54785156 C-30.17530882 29.68811416 -30.1865245 26.82857321 -30.1953125 23.96875 C-30.20563507 23.09134155 -30.21595764 22.21393311 -30.22659302 21.30993652 C-30.228042 13.25013728 -29.34256585 6.45424435 -23.62890625 0.41015625 C-17.04631034 -5.28844596 -7.05522289 -3.93464353 0 0 Z " fill="#000000" transform="translate(74,4)"/>
<path d="M0 0 C4.59063175 2.70037162 7.46598655 5.71045964 9.1875 10.875 C9.27437799 12.42470448 9.3051866 13.97789707 9.30102539 15.5300293 C9.30094986 16.47077805 9.30087433 17.41152679 9.30079651 18.38078308 C9.29563522 19.39336685 9.29047394 20.40595062 9.28515625 21.44921875 C9.2837413 22.48818802 9.28232635 23.52715729 9.28086853 24.59761047 C9.27526656 27.91926948 9.26271372 31.24086133 9.25 34.5625 C9.24498525 36.81315007 9.2404223 39.06380119 9.23632812 41.31445312 C9.22529648 46.83466133 9.20803051 52.35481928 9.1875 57.875 C4.8975 57.875 0.6075 57.875 -3.8125 57.875 C-3.83231934 56.58811279 -3.85213867 55.30122559 -3.87255859 53.9753418 C-3.94856405 49.20609793 -4.03728924 44.43716119 -4.12988281 39.66821289 C-4.16819348 37.60317035 -4.20304266 35.5380606 -4.234375 33.47290039 C-4.27998014 30.50642862 -4.33798201 27.5404204 -4.3984375 24.57421875 C-4.40998871 23.6491301 -4.42153992 22.72404144 -4.43344116 21.7709198 C-4.45331085 20.91025406 -4.47318054 20.04958832 -4.49365234 19.1628418 C-4.50697601 18.40561325 -4.52029968 17.6483847 -4.5340271 16.86820984 C-4.70958612 14.55894812 -4.70958612 14.55894812 -6.8125 11.875 C-8.4625 12.205 -10.1125 12.535 -11.8125 12.875 C-12.71566325 15.58448975 -12.959075 17.27635334 -13.01782227 20.07104492 C-13.03776749 20.91168991 -13.05771271 21.7523349 -13.07826233 22.61845398 C-13.10333107 23.97327629 -13.10333107 23.97327629 -13.12890625 25.35546875 C-13.14968735 26.28345779 -13.17046844 27.21144684 -13.19187927 28.16755676 C-13.25727323 31.1324624 -13.31621262 34.09745672 -13.375 37.0625 C-13.41819487 39.0722748 -13.46180947 41.08204063 -13.50585938 43.09179688 C-13.61294427 48.01944032 -13.71424045 52.94717299 -13.8125 57.875 C-18.1025 57.875 -22.3925 57.875 -26.8125 57.875 C-26.88678588 51.29136612 -26.94116699 44.70797751 -26.97729492 38.12402344 C-26.99235964 35.88537342 -27.01281533 33.64675281 -27.03881836 31.40820312 C-27.07530283 28.18612398 -27.09224983 24.96443589 -27.10546875 21.7421875 C-27.12095261 20.74508759 -27.13643646 19.74798767 -27.15238953 18.72067261 C-27.15368571 13.34057102 -26.87887357 9.50510009 -23.8125 4.875 C-16.82760222 -1.74227158 -9.06356223 -2.67449377 0 0 Z " fill="#000000" transform="translate(316.8125,2.125)"/>
<path d="M0 0 C0 3.96 0 7.92 0 12 C-1.44375 12.37125 -2.8875 12.7425 -4.375 13.125 C-6.85163805 13.86187223 -6.85163805 13.86187223 -9 15 C-10.68036511 18.02884844 -10.68036511 18.02884844 -11 21 C-10.01 20.67 -9.02 20.34 -8 20 C-3.06452696 19.4818178 0.87829589 19.49013449 5.4375 21.5625 C9.45229166 25.38144816 10.83240339 28.74717773 11.23754883 34.19311523 C11.29506984 37.94566442 11.26137011 41.68527743 11.1875 45.4375 C11.16719727 47.39333008 11.16719727 47.39333008 11.14648438 49.38867188 C11.11127608 52.59262654 11.05747381 55.79636739 11 59 C6.38 59 1.76 59 -3 59 C-3.06058594 57.29070313 -3.12117188 55.58140625 -3.18359375 53.8203125 C-3.26798879 51.58853256 -3.35263731 49.3567622 -3.4375 47.125 C-3.47681641 45.99707031 -3.51613281 44.86914062 -3.55664062 43.70703125 C-3.59853516 42.63066406 -3.64042969 41.55429687 -3.68359375 40.4453125 C-3.72025146 39.45031738 -3.75690918 38.45532227 -3.79467773 37.43017578 C-3.84959532 34.99220499 -3.84959532 34.99220499 -5 33 C-7.475 33.495 -7.475 33.495 -10 34 C-10.9731681 36.9195043 -11.1929546 39.05444951 -11.31640625 42.10546875 C-11.35830078 43.08837891 -11.40019531 44.07128906 -11.44335938 45.08398438 C-11.48267578 46.10814453 -11.52199219 47.13230469 -11.5625 48.1875 C-11.60568359 49.22326172 -11.64886719 50.25902344 -11.69335938 51.32617188 C-11.79944263 53.88395702 -11.90022586 56.44196098 -12 59 C-16.62 59 -21.24 59 -26 59 C-26.07451939 53.30748309 -26.12877612 47.61525425 -26.16479492 41.92236328 C-26.17982075 39.98839365 -26.20024726 38.05445774 -26.22631836 36.12060547 C-26.26297591 33.33031864 -26.27978868 30.54048489 -26.29296875 27.75 C-26.30845261 26.89446533 -26.32393646 26.03893066 -26.33988953 25.1574707 C-26.34177577 18.32942263 -24.92996033 13.14512053 -21.3125 7.25 C-15.17244561 1.27589303 -8.33440998 0 0 0 Z " fill="#000000" transform="translate(207,1)"/>
<path d="M0 0 C4.25971064 4.147613 5.8143102 8.62861745 6.2746582 14.50756836 C6.32450501 21.820141 6.32450501 21.820141 6.31567383 24.73999023 C6.31251361 26.92807852 6.33601008 29.11481275 6.36132812 31.30273438 C6.36360166 32.71093582 6.36430436 34.11914085 6.36328125 35.52734375 C6.36626221 36.79312256 6.36924316 38.05890137 6.37231445 39.36303711 C5.6848114 46.0789276 3.14065611 50.51840237 -2 55 C-5.11386082 56.55693041 -8.39744932 56.22567195 -11.8125 56.25 C-12.52470703 56.270625 -13.23691406 56.29125 -13.97070312 56.3125 C-18.53954367 56.34631196 -21.35801897 55.7783495 -25 53 C-30.13615239 47.86384761 -31.10304897 41.9804271 -31.125 35 C-31.08375 33.68 -31.0425 32.36 -31 31 C-26.38 31 -21.76 31 -17 31 C-16.77213542 33.79947917 -16.54427083 36.59895833 -16.31640625 39.3984375 C-16.15034374 41.97927613 -16.15034374 41.97927613 -15 44 C-13.33388095 44.042721 -11.66617115 44.04063832 -10 44 C-8.64894855 42.87572365 -8.64894855 42.87572365 -8.88647461 39.94897461 C-8.88663366 38.60008729 -8.89232388 37.25119386 -8.90234375 35.90234375 C-8.90446617 34.83905602 -8.90446617 34.83905602 -8.90663147 33.75428772 C-8.91224557 31.48198288 -8.92480037 29.20977525 -8.9375 26.9375 C-8.94251319 25.40039204 -8.94707641 23.86328255 -8.95117188 22.32617188 C-8.96221958 18.55074358 -8.97949359 14.77538829 -9 11 C-10.65614657 10.61781233 -12.32457024 10.28604898 -14 10 C-15.66342837 11.66342837 -15.36048097 13.7825709 -15.5625 16.0625 C-15.706875 17.691875 -15.85125 19.32125 -16 21 C-20.62 21 -25.24 21 -30 21 C-30.32862244 13.00352061 -29.96832545 7.61012554 -24.6875 1.1875 C-17.4353265 -4.71543192 -7.94959337 -4.41644076 0 0 Z " fill="#000000" transform="translate(166,4)"/>
<path d="M0 0 C4.45626749 2.65749015 7.20794823 5.45702074 8.6875 10.5 C9.25508667 16.48920754 8.97587361 22.50182897 8.6875 28.5 C4.3975 28.5 0.1075 28.5 -4.3125 28.5 C-4.5078125 25.24479167 -4.703125 21.98958333 -4.8984375 18.734375 C-5.27498308 15.79305666 -5.7899123 14.00050989 -7.3125 11.5 C-9.2925 11.5 -11.2725 11.5 -13.3125 11.5 C-13.40026185 15.18734775 -13.45314603 18.87442347 -13.5 22.5625 C-13.52513672 23.60083984 -13.55027344 24.63917969 -13.57617188 25.70898438 C-13.6339774 31.7785648 -13.31687049 36.17341077 -10.3125 41.5 C-6.11339299 45.19012434 -0.66357546 45.57248025 4.6875 46.5 C4.6875 50.13 4.6875 53.76 4.6875 57.5 C-5.09337188 58.35188239 -12.10327444 57.03175507 -20.3125 51.5 C-25.07778546 47.44222417 -27.06501389 42.42671569 -27.5871582 36.25195312 C-27.61539085 32.50096886 -27.63425742 28.75110533 -27.625 25 C-27.64111328 23.69417969 -27.65722656 22.38835938 -27.67382812 21.04296875 C-27.67447266 19.78097656 -27.67511719 18.51898437 -27.67578125 17.21875 C-27.67876221 16.07341797 -27.68174316 14.92808594 -27.68481445 13.74804688 C-27.12704415 8.88209533 -25.48113018 5.60712333 -21.9375 2.25 C-15.19888158 -2.24241228 -7.59349761 -3.25024708 0 0 Z " fill="#000000" transform="translate(27.3125,2.5)"/>
<path d="M0 0 C21.95209581 -0.64670659 21.95209581 -0.64670659 29.25 4.125 C31.48106963 7.79032869 32.31561703 10.7108455 32 15 C31.23452626 17.55157914 30.24002954 19.61914328 29 22 C29.804375 22.928125 30.60875 23.85625 31.4375 24.8125 C35.88857202 29.94835233 35.40302854 35.7423118 35.28125 42.25 C34.80806041 48.55919459 32.95873591 52.18117379 28.375 56.4375 C23.70381016 59.51065121 20.55223405 59.07931763 15 59 C15 55.37 15 51.74 15 48 C16.65 47.34 18.3 46.68 20 46 C21.62014241 42.63508885 21.1959747 38.65819437 21 35 C20.11935073 32.64630193 20.11935073 32.64630193 19 31 C16.36 31 13.72 31 11 31 C10.67 33.97 10.34 36.94 10 40 C5.38 40 0.76 40 -4 40 C-3.69827039 32.75848948 -2.9147407 27.52748759 2 22 C6.96127815 17.64467949 12.61110646 17.25709833 19 17 C18.67 15.68 18.34 14.36 18 13 C17.34773438 12.91363281 16.69546875 12.82726563 16.0234375 12.73828125 C9.87549017 11.74989444 6.23184345 10.6550278 2 6 C1.27797576 4.01931188 0.60270992 2.02019435 0 0 Z " fill="#DF3025" transform="translate(92,1)"/>
</svg>
